<svg xmlns="http://www.w3.org/2000/svg" xmlns:xlink="http://www.w3.org/1999/xlink" width="150" height="150" viewBox="0 0 150 150"><defs><filter id="a" x="-6.968" y="25.121" width="104.847" height="104.847" filterUnits="userSpaceOnUse"><feOffset dy="3" input="SourceAlpha"/><feGaussianBlur stdDeviation="3" result="b"/><feFlood flood-opacity="0.161"/><feComposite operator="in" in2="b"/><feComposite in="SourceGraphic"/></filter><filter id="c" x="51" y="25" width="105.709" height="105.709" filterUnits="userSpaceOnUse"><feOffset dy="3" input="SourceAlpha"/><feGaussianBlur stdDeviation="3" result="d"/><feFlood flood-opacity="0.161"/><feComposite operator="in" in2="d"/><feComposite in="SourceGraphic"/></filter><clipPath id="f"><rect width="150" height="150"/></clipPath></defs><g id="e" clip-path="url(#f)"><g transform="matrix(1, 0, 0, 1, 0, 0)" filter="url(#a)"><path d="M10.387,70.91H60.523A10.4,10.4,0,0,0,70.91,60.523V10.387A10.4,10.4,0,0,0,60.523,0H10.387A10.4,10.4,0,0,0,0,10.387V60.523A10.4,10.4,0,0,0,10.387,70.91ZM4.155,10.387a6.239,6.239,0,0,1,6.232-6.232H60.523a6.24,6.24,0,0,1,6.232,6.232V60.523a6.24,6.24,0,0,1-6.232,6.232H10.387a6.24,6.24,0,0,1-6.232-6.232Zm0,0" transform="matrix(0.97, -0.26, 0.26, 0.97, 2.03, 49.47)" fill="#fff"/></g><path d="M139.7,158.394A18.7,18.7,0,1,0,121,139.7,18.719,18.719,0,0,0,139.7,158.394Zm0-33.239A14.542,14.542,0,1,1,125.155,139.7,14.558,14.558,0,0,1,139.7,125.155Zm0,0" transform="matrix(0.966, -0.259, 0.259, 0.966, -125.638, -24.236)" fill="#fff"/><path d="M367.232,73.465A6.232,6.232,0,1,0,361,67.232,6.239,6.239,0,0,0,367.232,73.465Zm0-8.31a2.077,2.077,0,1,1-2.077,2.077A2.08,2.08,0,0,1,367.232,65.155Zm0,0" transform="matrix(0.966, -0.259, 0.259, 0.966, -311.975, 79.207)" fill="#fff"/><path d="M181,94.508v35.583l31.5-18.084Zm5.235,8.9,15.619,8.677-15.619,8.966Zm0,0" transform="matrix(0.966, 0.259, -0.259, 0.966, -55.162, -84.134)" fill="#fff"/><g transform="matrix(1, 0, 0, 1, 0, 0)" filter="url(#c)"><path d="M10.387,70.91H60.523A10.4,10.4,0,0,0,70.91,60.523V10.387A10.4,10.4,0,0,0,60.523,0H10.387A10.4,10.4,0,0,0,0,10.387V60.523A10.4,10.4,0,0,0,10.387,70.91ZM4.155,10.387a6.239,6.239,0,0,1,6.232-6.232H60.523a6.24,6.24,0,0,1,6.232,6.232V60.523a6.24,6.24,0,0,1-6.232,6.232H10.387a6.24,6.24,0,0,1-6.232-6.232Zm0,0" transform="translate(79.55 31) rotate(16)" fill="#fff"/></g></g></svg>